<svg xmlns="http://www.w3.org/2000/svg" viewBox="0 0 1040 512" width="1040" height="512" font-family="ui-monospace, SFMono-Regular, Menlo, Consolas, monospace" font-size="13">
<rect x="0.0" y="0.0" width="1040.0" height="16.0" fill="#1f232b"/>
<rect x="0.0" y="16.0" width="1040.0" height="16.0" fill="#1a1d23"/>
<rect x="0.0" y="32.0" width="1040.0" height="16.0" fill="#1a1d23"/>
<rect x="0.0" y="48.0" width="1040.0" height="16.0" fill="#1a1d23"/>
<rect x="0.0" y="64.0" width="1040.0" height="16.0" fill="#1a1d23"/>
<rect x="0.0" y="80.0" width="1040.0" height="16.0" fill="#1a1d23"/>
<rect x="0.0" y="96.0" width="1040.0" height="16.0" fill="#1a1d23"/>
<rect x="0.0" y="112.0" width="1040.0" height="16.0" fill="#1a1d23"/>
<rect x="0.0" y="128.0" width="1040.0" height="16.0" fill="#1a1d23"/>
<rect x="0.0" y="144.0" width="1040.0" height="16.0" fill="#1a1d23"/>
<rect x="0.0" y="160.0" width="1040.0" height="16.0" fill="#1a1d23"/>
<rect x="0.0" y="176.0" width="1040.0" height="16.0" fill="#1a1d23"/>
<rect x="0.0" y="192.0" width="1040.0" height="16.0" fill="#1a1d23"/>
<rect x="0.0" y="208.0" width="1040.0" height="16.0" fill="#1a1d23"/>
<rect x="0.0" y="224.0" width="1040.0" height="16.0" fill="#1a1d23"/>
<rect x="0.0" y="240.0" width="1040.0" height="16.0" fill="#1a1d23"/>
<rect x="0.0" y="256.0" width="1040.0" height="16.0" fill="#1a1d23"/>
<rect x="0.0" y="272.0" width="1040.0" height="16.0" fill="#1a1d23"/>
<rect x="0.0" y="288.0" width="1040.0" height="16.0" fill="#1a1d23"/>
<rect x="0.0" y="304.0" width="1040.0" height="16.0" fill="#1a1d23"/>
<rect x="0.0" y="320.0" width="1040.0" height="16.0" fill="#1a1d23"/>
<rect x="0.0" y="336.0" width="1040.0" height="16.0" fill="#1a1d23"/>
<rect x="0.0" y="352.0" width="1040.0" height="16.0" fill="#1a1d23"/>
<rect x="0.0" y="368.0" width="1040.0" height="16.0" fill="#1a1d23"/>
<rect x="0.0" y="384.0" width="1040.0" height="16.0" fill="#1a1d23"/>
<rect x="0.0" y="400.0" width="1040.0" height="16.0" fill="#1a1d23"/>
<rect x="0.0" y="416.0" width="1040.0" height="16.0" fill="#1a1d23"/>
<rect x="0.0" y="432.0" width="1040.0" height="16.0" fill="#1a1d23"/>
<rect x="0.0" y="448.0" width="1040.0" height="16.0" fill="#1a1d23"/>
<rect x="0.0" y="464.0" width="1040.0" height="16.0" fill="#1a1d23"/>
<rect x="0.0" y="480.0" width="1040.0" height="16.0" fill="#1a1d23"/>
<rect x="0.0" y="496.0" width="72.0" height="16.0" fill="#8aa9c9"/>
<rect x="72.0" y="496.0" width="968.0" height="16.0" fill="#252a33"/>
<text x="8.00" y="12.48" fill="#8aa9c9">▶</text>
<text x="16.00" y="12.48" fill="#e07a7a">▮</text>
<text x="24.00" y="12.48" fill="#8aa9c9">◀</text>
<text x="40.00" y="12.48" fill="#c8ccd4" font-weight="bold">d</text>
<text x="48.00" y="12.48" fill="#c8ccd4" font-weight="bold">o</text>
<text x="56.00" y="12.48" fill="#c8ccd4" font-weight="bold">n</text>
<text x="64.00" y="12.48" fill="#c8ccd4" font-weight="bold">e</text>
<text x="72.00" y="12.48" fill="#c8ccd4" font-weight="bold">.</text>
<text x="80.00" y="12.48" fill="#c8ccd4" font-weight="bold">t</text>
<text x="88.00" y="12.48" fill="#c8ccd4" font-weight="bold">x</text>
<text x="96.00" y="12.48" fill="#c8ccd4" font-weight="bold">t</text>
<text x="120.00" y="12.48" fill="#6b7280">c</text>
<text x="128.00" y="12.48" fill="#6b7280">o</text>
<text x="136.00" y="12.48" fill="#6b7280">m</text>
<text x="144.00" y="12.48" fill="#6b7280">p</text>
<text x="152.00" y="12.48" fill="#6b7280">l</text>
<text x="160.00" y="12.48" fill="#6b7280">e</text>
<text x="168.00" y="12.48" fill="#6b7280">t</text>
<text x="176.00" y="12.48" fill="#6b7280">e</text>
<text x="184.00" y="12.48" fill="#6b7280">d</text>
<text x="216.00" y="12.48" fill="#6b7280">0</text>
<text x="232.00" y="12.48" fill="#6b7280">t</text>
<text x="240.00" y="12.48" fill="#6b7280">a</text>
<text x="248.00" y="12.48" fill="#6b7280">s</text>
<text x="256.00" y="12.48" fill="#6b7280">k</text>
<text x="264.00" y="12.48" fill="#6b7280">s</text>
<text x="296.00" y="12.48" fill="#8aa9c9">s</text>
<text x="304.00" y="12.48" fill="#8aa9c9">o</text>
<text x="312.00" y="12.48" fill="#8aa9c9">r</text>
<text x="320.00" y="12.48" fill="#8aa9c9">t</text>
<text x="328.00" y="12.48" fill="#8aa9c9">:</text>
<text x="336.00" y="12.48" fill="#8aa9c9">c</text>
<text x="344.00" y="12.48" fill="#8aa9c9">o</text>
<text x="352.00" y="12.48" fill="#8aa9c9">m</text>
<text x="360.00" y="12.48" fill="#8aa9c9">p</text>
<text x="368.00" y="12.48" fill="#8aa9c9">l</text>
<text x="376.00" y="12.48" fill="#8aa9c9">e</text>
<text x="384.00" y="12.48" fill="#8aa9c9">t</text>
<text x="392.00" y="12.48" fill="#8aa9c9">i</text>
<text x="400.00" y="12.48" fill="#8aa9c9">o</text>
<text x="408.00" y="12.48" fill="#8aa9c9">n</text>
<text x="416.00" y="12.48" fill="#8aa9c9">-</text>
<text x="424.00" y="12.48" fill="#8aa9c9">d</text>
<text x="432.00" y="12.48" fill="#8aa9c9">a</text>
<text x="440.00" y="12.48" fill="#8aa9c9">t</text>
<text x="448.00" y="12.48" fill="#8aa9c9">e</text>
<text x="24.00" y="44.48" fill="#6b7280">n</text>
<text x="32.00" y="44.48" fill="#6b7280">o</text>
<text x="48.00" y="44.48" fill="#6b7280">c</text>
<text x="56.00" y="44.48" fill="#6b7280">o</text>
<text x="64.00" y="44.48" fill="#6b7280">m</text>
<text x="72.00" y="44.48" fill="#6b7280">p</text>
<text x="80.00" y="44.48" fill="#6b7280">l</text>
<text x="88.00" y="44.48" fill="#6b7280">e</text>
<text x="96.00" y="44.48" fill="#6b7280">t</text>
<text x="104.00" y="44.48" fill="#6b7280">e</text>
<text x="112.00" y="44.48" fill="#6b7280">d</text>
<text x="128.00" y="44.48" fill="#6b7280">t</text>
<text x="136.00" y="44.48" fill="#6b7280">a</text>
<text x="144.00" y="44.48" fill="#6b7280">s</text>
<text x="152.00" y="44.48" fill="#6b7280">k</text>
<text x="160.00" y="44.48" fill="#6b7280">s</text>
<text x="176.00" y="44.48" fill="#6b7280">y</text>
<text x="184.00" y="44.48" fill="#6b7280">e</text>
<text x="192.00" y="44.48" fill="#6b7280">t</text>
<text x="8.00" y="508.48" fill="#1a1d23" font-weight="bold">A</text>
<text x="16.00" y="508.48" fill="#1a1d23" font-weight="bold">R</text>
<text x="24.00" y="508.48" fill="#1a1d23" font-weight="bold">C</text>
<text x="32.00" y="508.48" fill="#1a1d23" font-weight="bold">H</text>
<text x="40.00" y="508.48" fill="#1a1d23" font-weight="bold">I</text>
<text x="48.00" y="508.48" fill="#1a1d23" font-weight="bold">V</text>
<text x="56.00" y="508.48" fill="#1a1d23" font-weight="bold">E</text>
<text x="88.00" y="508.48" fill="#a8b0bc">j</text>
<text x="96.00" y="508.48" fill="#a8b0bc">/</text>
<text x="104.00" y="508.48" fill="#a8b0bc">k</text>
<text x="120.00" y="508.48" fill="#a8b0bc">·</text>
<text x="136.00" y="508.48" fill="#a8b0bc">a</text>
<text x="152.00" y="508.48" fill="#a8b0bc">a</text>
<text x="160.00" y="508.48" fill="#a8b0bc">d</text>
<text x="168.00" y="508.48" fill="#a8b0bc">d</text>
<text x="184.00" y="508.48" fill="#a8b0bc">·</text>
<text x="200.00" y="508.48" fill="#a8b0bc">x</text>
<text x="216.00" y="508.48" fill="#a8b0bc">d</text>
<text x="224.00" y="508.48" fill="#a8b0bc">o</text>
<text x="232.00" y="508.48" fill="#a8b0bc">n</text>
<text x="240.00" y="508.48" fill="#a8b0bc">e</text>
<text x="256.00" y="508.48" fill="#a8b0bc">·</text>
<text x="272.00" y="508.48" fill="#a8b0bc">/</text>
<text x="288.00" y="508.48" fill="#a8b0bc">s</text>
<text x="296.00" y="508.48" fill="#a8b0bc">e</text>
<text x="304.00" y="508.48" fill="#a8b0bc">a</text>
<text x="312.00" y="508.48" fill="#a8b0bc">r</text>
<text x="320.00" y="508.48" fill="#a8b0bc">c</text>
<text x="328.00" y="508.48" fill="#a8b0bc">h</text>
<text x="344.00" y="508.48" fill="#a8b0bc">·</text>
<text x="360.00" y="508.48" fill="#a8b0bc">?</text>
<text x="376.00" y="508.48" fill="#a8b0bc">h</text>
<text x="384.00" y="508.48" fill="#a8b0bc">e</text>
<text x="392.00" y="508.48" fill="#a8b0bc">l</text>
<text x="400.00" y="508.48" fill="#a8b0bc">p</text>
<text x="416.00" y="508.48" fill="#a8b0bc">·</text>
<text x="432.00" y="508.48" fill="#a8b0bc">u</text>
<text x="448.00" y="508.48" fill="#a8b0bc">u</text>
<text x="456.00" y="508.48" fill="#a8b0bc">n</text>
<text x="464.00" y="508.48" fill="#a8b0bc">d</text>
<text x="472.00" y="508.48" fill="#a8b0bc">o</text>
<text x="488.00" y="508.48" fill="#a8b0bc">·</text>
<text x="504.00" y="508.48" fill="#a8b0bc">q</text>
<text x="520.00" y="508.48" fill="#a8b0bc">q</text>
<text x="528.00" y="508.48" fill="#a8b0bc">u</text>
<text x="536.00" y="508.48" fill="#a8b0bc">i</text>
<text x="544.00" y="508.48" fill="#a8b0bc">t</text>
<text x="848.00" y="508.48" fill="#6b7280">0</text>
<text x="864.00" y="508.48" fill="#6b7280">a</text>
<text x="872.00" y="508.48" fill="#6b7280">r</text>
<text x="880.00" y="508.48" fill="#6b7280">c</text>
<text x="888.00" y="508.48" fill="#6b7280">h</text>
<text x="896.00" y="508.48" fill="#6b7280">i</text>
<text x="904.00" y="508.48" fill="#6b7280">v</text>
<text x="912.00" y="508.48" fill="#6b7280">e</text>
<text x="920.00" y="508.48" fill="#6b7280">d</text>
<text x="936.00" y="508.48" fill="#6b7280">·</text>
<text x="952.00" y="508.48" fill="#6b7280">2</text>
<text x="960.00" y="508.48" fill="#6b7280">0</text>
<text x="968.00" y="508.48" fill="#6b7280">2</text>
<text x="976.00" y="508.48" fill="#6b7280">6</text>
<text x="984.00" y="508.48" fill="#6b7280">-</text>
<text x="992.00" y="508.48" fill="#6b7280">0</text>
<text x="1000.00" y="508.48" fill="#6b7280">5</text>
<text x="1008.00" y="508.48" fill="#6b7280">-</text>
<text x="1016.00" y="508.48" fill="#6b7280">0</text>
<text x="1024.00" y="508.48" fill="#6b7280">6</text>
</svg>
